<svg width="35" height="35" viewBox="0 0 35 35" fill="none" xmlns="http://www.w3.org/2000/svg">
    <g clip-path="url(#clip0_5_32)">
        <path fill-rule="evenodd" clip-rule="evenodd" d="M11.6663 1.45834C16.4987 1.45834 20.4161 5.37574 20.4161 10.2081C20.4161 15.0404 16.4987 18.9578 11.6663 18.9578C6.83398 18.9578 2.91658 15.0404 2.91658 10.2081C2.91658 5.37574 6.83398 1.45834 11.6663 1.45834ZM1.45829 33.6852C0.6529 33.6852 0 33.0323 0 32.2269V29.1658C0 25.1389 3.26449 21.8745 7.29146 21.8745H16.0422C20.0691 21.8745 23.3338 25.1389 23.3338 29.1658V32.2269C23.3338 33.0323 22.6809 33.6852 21.8754 33.6852C21.07 33.6852 2.26368 33.6852 1.45829 33.6852ZM20.0498 18.3211C22.0821 16.2215 23.3328 13.3609 23.3328 10.2081C23.3328 7.05531 22.0821 4.19461 20.0498 2.09506C21.0636 1.68446 22.1716 1.45834 23.3328 1.45834C28.1651 1.45834 32.0825 5.37574 32.0825 10.2081C32.0825 15.0404 28.1651 18.9578 23.3328 18.9578C22.1716 18.9578 21.0636 18.7318 20.0498 18.3211ZM23.1863 21.8745H27.7086C31.7355 21.8745 35 25.1389 35 29.1658V32.2269C35 33.0323 34.3471 33.6852 33.5418 33.6852H26.0014C26.1625 33.229 26.2503 32.7382 26.2503 32.2269V29.1658C26.2503 26.3095 25.0772 23.7273 23.1863 21.8745Z" fill="white"/>
    </g>
    <defs>
        <clipPath id="clip0_5_32">
            <rect width="35" height="35" fill="white"/>
        </clipPath>
    </defs>
</svg>
