<svg width="60" height="60" viewBox="0 0 60 60" fill="none" xmlns="http://www.w3.org/2000/svg">
    <g clip-path="url(#clip0_1_10)">
        <path d="M21.5789 22.0418L26.3158 17.3049L23.1579 14.147L7.36847 29.9366L28.9465 51.515L28.9471 51.5156C29.818 52.3863 31.2347 52.3863 32.1053 51.5158C32.5272 51.0939 32.7595 50.5331 32.7595 49.9367C32.7595 49.341 32.5275 48.7805 32.1063 48.3589C32.106 48.3585 32.1056 48.3583 32.1053 48.358C32.1053 48.358 32.105 48.3576 32.1047 48.3573L28.9473 45.2C28.0752 44.328 28.0752 42.9142 28.9471 42.0422C29.819 41.1703 31.2329 41.1701 32.1051 42.0422L35.2632 45.2C35.2634 45.2003 35.2637 45.2008 35.2642 45.2012C36.1351 46.0706 37.5508 46.0703 38.421 45.2002C39.2916 44.3295 39.2917 42.9129 38.421 42.0423C38.4204 42.0416 38.4198 42.0408 38.4189 42.0401L35.2632 38.8843C34.3913 38.0123 34.3913 36.5985 35.2632 35.7264C36.1351 34.8545 37.549 34.8544 38.421 35.7263L41.5783 38.8834C41.579 38.8842 41.5796 38.8849 41.5804 38.8856C42.4511 39.7544 43.8659 39.7543 44.7361 38.8849C44.7364 38.8846 44.7367 38.8844 44.7369 38.8842L44.7384 38.8827C45.1591 38.4609 45.391 37.9009 45.391 37.3051C45.3912 36.7095 45.1595 36.1498 44.7388 35.7284L43.6843 34.6737C43.684 34.6734 43.6837 34.6731 43.6834 34.6726L35.7897 26.7789L31.0528 31.5158L31.0527 31.516C29.7468 32.8216 28.0315 33.4747 26.3161 33.4747C24.6006 33.4747 22.8852 32.8216 21.5792 31.5157C18.968 28.9043 18.9677 24.6555 21.578 22.0434C21.578 22.0428 21.5785 22.0422 21.5789 22.0418Z" fill="white"/>
        <path d="M19.3354 11.6541L20.0002 10.9893L16.8421 7.8313L0 24.6735L3.15786 27.8314L19.3354 11.6541Z" fill="white"/>
        <path d="M31.0542 18.8823C31.0536 18.8829 31.0532 18.8835 31.0526 18.8841C31.052 18.8846 31.0514 18.8851 31.0508 18.8855L24.737 25.1996C24.7367 25.1998 24.7365 25.1999 24.7365 25.1999C23.8661 26.0708 23.8663 27.4872 24.7367 28.3576C25.6075 29.2282 27.0241 29.2284 27.8948 28.3575L34.2106 22.0418C34.6293 21.623 35.1974 21.3877 35.7894 21.3877C36.3818 21.3877 36.9497 21.623 37.3683 22.0418L46.8416 31.5151L46.8419 31.5152L47.8942 32.5675C47.8942 32.5675 47.8943 32.5677 47.8946 32.5678C47.8946 32.5678 47.8949 32.5683 47.8952 32.5686L49.4735 34.1468L52.6314 30.989L35.7894 14.147L31.0542 18.8823Z" fill="white"/>
        <path d="M38.9476 10.9896L56.8423 28.8843L60.0001 25.7264L42.1055 7.83175L38.9476 10.9896Z" fill="white"/>
    </g>
    <defs>
        <clipPath id="clip0_1_10">
            <rect width="60" height="60" fill="white"/>
        </clipPath>
    </defs>
</svg>
