<svg width="30" height="30" viewBox="0 0 30 30" fill="none" xmlns="http://www.w3.org/2000/svg">
    <path d="M5.5 5C4.845 5 4.84 6.01 5.5 6H27.5C27.786 6 28 6.214 28 6.5V19.5C28 20.16 29 20.16 29 19.5V6.5C29 5.678 28.322 5 27.5 5H5.5ZM3.5 7C2.846 7 2.846 8 3.5 8H25.5C25.786 8 26 8.214 26 8.5V21.5C26 22.165 27.01 22.16 27 21.5V8.5C27 7.678 26.322 7 25.5 7H3.5ZM1.5 9C0.678 9 0 9.678 0 10.5V22.5C0 23.322 0.678 24 1.5 24H23.5C24.322 24 25 23.322 25 22.5V10.5C25 9.678 24.322 9 23.5 9H1.5ZM1.5 10H23.5C23.786 10 24 10.214 24 10.5V22.5C24 22.786 23.786 23 23.5 23H1.5C1.214 23 1 22.786 1 22.5V10.5C1 10.214 1.214 10 1.5 10ZM2.5 11C2.224 11 2 11.224 2 11.5V13.5C2 14.172 3 14.156 3 13.5V12H4.5C5.172 12 5.156 11 4.5 11H2.5ZM12.5 11C9.468 11 7 13.468 7 16.5C7 19.532 9.468 22 12.5 22C15.532 22 18 19.532 18 16.5C18 13.468 15.532 11 12.5 11ZM20.5 11C19.844 11 19.828 12 20.5 12H22V13.5C22 14.156 23 14.172 23 13.5V11.5C23 11.224 22.776 11 22.5 11H20.5ZM12.5 12C14.99 12 17 14.01 17 16.5C17 18.99 14.99 21 12.5 21C10.01 21 8 18.99 8 16.5C8 14.01 10.01 12 12.5 12ZM12.5 13C12.223 13 12 13.223 12 13.5V14.094C11.422 14.304 11 14.854 11 15.5C11 16.32 11.68 17 12.5 17C12.78 17 13 17.212 13 17.5C13 17.788 12.78 18 12.5 18H11.5C11.162 17.995 11 18.248 11 18.5C11 18.752 11.162 19.005 11.5 19H12V19.5C12 19.777 12.223 20 12.5 20C12.777 20 13 19.777 13 19.5V18.906C13.578 18.696 14 18.146 14 17.5C14 16.68 13.32 16 12.5 16C12.22 16 12 15.788 12 15.5C12 15.212 12.22 15 12.5 15H13.5C13.838 15.005 14 14.752 14 14.5C14 14.248 13.838 13.995 13.5 14H13V13.5C13 13.223 12.777 13 12.5 13ZM2.5 19.002C2.25 19 2 19.164 2 19.5V21.5C2 21.776 2.224 22 2.5 22H4.5C5.156 22 5.172 21 4.5 21H3V19.5C3 19.172 2.75 19.004 2.5 19.002ZM22.5 19.002C22.25 19.004 22 19.172 22 19.5V21H20.5C19.828 21 19.844 22 20.5 22H22.5C22.776 22 23 21.776 23 21.5V19.5C23 19.164 22.75 19 22.5 19.002Z" fill="white"/>
</svg>
