<svg width="44" height="44" viewBox="0 0 44 44" fill="none" xmlns="http://www.w3.org/2000/svg">
    <g clip-path="url(#clip0_1_16)">
        <path d="M9.59998 44H15.2V14.1314L9.59998 20.1736V44Z" fill="white"/>
        <path d="M19.2 44H24.7999V16.1448L19.2 12.4484V44Z" fill="white"/>
        <path d="M28.7999 44H34.3999V7.28479L28.7999 13.3514V44Z" fill="white"/>
        <path d="M0 31.3157V42C0 43.1046 0.895464 44 1.99999 44H5.59998V24.4893L0.533065 29.9561C0.190399 30.3259 0 30.8115 0 31.3157Z" fill="white"/>
        <path d="M42.7282 0.137498C41.9611 -0.162501 41.089 0.0385646 40.5304 0.64363L38.3999 2.95149V43.9999H41.9999C43.1044 43.9999 43.9999 43.1044 43.9999 41.9999V12.1733V2.00003C43.9999 1.17656 43.4952 0.437363 42.7282 0.137498Z" fill="white"/>
    </g>
    <defs>
        <clipPath id="clip0_1_16">
            <rect width="44" height="44" fill="white"/>
        </clipPath>
    </defs>
</svg>
